<svg xmlns="http://www.w3.org/2000/svg" width="276" height="48.302" viewBox="0 0 276 48.302">
  <g id="Grupo_1" data-name="Grupo 1" transform="translate(201.804 -281.638)">
    <g id="Grupo_16" data-name="Grupo 16" transform="translate(-201.804 281.638)">
      <g id="Grupo_1-2" data-name="Grupo 1" transform="translate(0 5.76)">
        <path id="Trazado_1" data-name="Trazado 1" d="M-191.237,305.552q-5.594,0-8.288-3.174a8.742,8.742,0,0,1-1.556-3.02,15.258,15.258,0,0,1-.6-4.578,12.55,12.55,0,0,1,.883-4.834,7.774,7.774,0,0,1,2.409-3.306,11.716,11.716,0,0,1,7.151-2.182,17.778,17.778,0,0,1,2.633.192,12.591,12.591,0,0,1,1.915.4l.628.209-.09.3a15.449,15.449,0,0,0-5.087-.808,7.3,7.3,0,0,0-5.3,2.062,8.553,8.553,0,0,0-2.274,4.49,18.355,18.355,0,0,0-.389,4.1,13.949,13.949,0,0,0,.688,4.471,8.819,8.819,0,0,0,1.571,3.039,6.561,6.561,0,0,0,2.139,1.571,7.186,7.186,0,0,0,2,.673,15.675,15.675,0,0,0,1.78.09,21.592,21.592,0,0,0,2.768-.239v-6.166h-3.62v-.3h7.39v.3h-1.287v5.9A16.417,16.417,0,0,1-191.237,305.552Z" transform="translate(201.946 -284.191)" fill="#03065e"/>
        <path id="Trazado_2" data-name="Trazado 2" d="M-191.095,305.961c-3.8,0-6.653-1.1-8.491-3.268a8.993,8.993,0,0,1-1.607-3.114,15.537,15.537,0,0,1-.611-4.657,12.885,12.885,0,0,1,.9-4.935,8.068,8.068,0,0,1,2.5-3.417,12.03,12.03,0,0,1,7.311-2.238,18.07,18.07,0,0,1,2.674.2,12.536,12.536,0,0,1,1.96.415l.872.291-.244.814-.263-.09a15.276,15.276,0,0,0-5-.793,7.073,7.073,0,0,0-5.11,1.988,8.319,8.319,0,0,0-2.2,4.353,18.269,18.269,0,0,0-.383,4.044,13.724,13.724,0,0,0,.675,4.386,8.542,8.542,0,0,0,1.515,2.945,6.273,6.273,0,0,0,2.054,1.507,6.913,6.913,0,0,0,1.923.65,14.707,14.707,0,0,0,1.748.09,20.067,20.067,0,0,0,2.5-.207v-5.664h-3.62v-.834h7.925v.834h-1.287v5.817l-.177.062A16.746,16.746,0,0,1-191.095,305.961Zm3.259-7v6.215a12.756,12.756,0,0,0,1.949-.477v-5.738Zm-6.409-13.734a10.64,10.64,0,0,0-3.84,1.774,7.514,7.514,0,0,0-2.321,3.193,12.349,12.349,0,0,0-.863,4.732,15.114,15.114,0,0,0,.586,4.5,8.561,8.561,0,0,0,1.507,2.93,8.621,8.621,0,0,0,5.012,2.787q-.285-.115-.6-.263a6.793,6.793,0,0,1-2.225-1.635,9.057,9.057,0,0,1-1.624-3.131,14.292,14.292,0,0,1-.7-4.556,18.782,18.782,0,0,1,.4-4.161,8.833,8.833,0,0,1,2.351-4.621A7.387,7.387,0,0,1-194.245,285.224Z" transform="translate(201.804 -284.333)" fill="#03065e"/>
      </g>
      <g id="Grupo_2" data-name="Grupo 2" transform="translate(18.713 5.542)">
        <path id="Trazado_3" data-name="Trazado 3" d="M-192.5,305.495h-.359l8.946-20.942.329-.152,7.54,21.094h-2.543l-2.334-6.583h-8.737Zm7.66-17.713-4.7,10.831h8.527Z" transform="translate(193.263 -284.038)" fill="#03065e"/>
        <path id="Trazado_4" data-name="Trazado 4" d="M-175.448,305.956h-3.112l-2.334-6.583h-8.374l-2.842,6.583h-.938l9.145-21.41.688-.314Zm-2.733-.534h1.975l-7.3-20.432-1.032,2.417,4.127,11.667h-.017Zm-10.733-6.882h7.741l-3.477-9.833Z" transform="translate(193.048 -284.231)" fill="#03065e"/>
      </g>
      <g id="Grupo_3" data-name="Grupo 3" transform="translate(37.548 5.728)">
        <path id="Trazado_5" data-name="Trazado 5" d="M-171.979,285.762a14.321,14.321,0,0,0-5.131-1.049,6.131,6.131,0,0,0-3.755,1.017,3.33,3.33,0,0,0-1.346,2.812,3.7,3.7,0,0,0,2.274,3.381,19.165,19.165,0,0,0,2.229.943q1.212.436,2.439.972a14.118,14.118,0,0,1,2.244,1.229,5.025,5.025,0,0,1,1.646,1.9,6.681,6.681,0,0,1,.628,3.084,4.948,4.948,0,0,1-1.047,3.184,5.153,5.153,0,0,1-2.528,1.78,11.567,11.567,0,0,1-3.456.466,10.671,10.671,0,0,1-6.283-1.825l.15-.241a7.951,7.951,0,0,0,2.558,1.274,10.729,10.729,0,0,0,3.216.494A7.421,7.421,0,0,0-174,304.058a3.7,3.7,0,0,0,1.72-3.308,4.164,4.164,0,0,0-2.274-3.74,18.662,18.662,0,0,0-2.229-1.1q-1.212-.51-2.439-1.062a15.135,15.135,0,0,1-2.244-1.242,4.8,4.8,0,0,1-2.274-4.251,4.605,4.605,0,0,1,1.466-3.544,6.28,6.28,0,0,1,4.413-1.364,18.984,18.984,0,0,1,6,1.017Z" transform="translate(184.426 -284.176)" fill="#03065e"/>
        <path id="Trazado_6" data-name="Trazado 6" d="M-177.593,305.889a10.969,10.969,0,0,1-6.437-1.874l-.205-.145.44-.707.235.184a7.687,7.687,0,0,0,2.471,1.227,10.438,10.438,0,0,0,3.137.483,7.193,7.193,0,0,0,4-1.079,3.417,3.417,0,0,0,1.6-3.084,3.879,3.879,0,0,0-2.144-3.509,18.3,18.3,0,0,0-2.2-1.09q-1.212-.51-2.445-1.066a15.164,15.164,0,0,1-2.283-1.263,5.065,5.065,0,0,1-2.391-4.471,4.887,4.887,0,0,1,1.552-3.74,6.562,6.562,0,0,1,4.595-1.434,19.24,19.24,0,0,1,6.085,1.032l.269.09-.325.808-.246-.1a14.129,14.129,0,0,0-5.035-1.03,5.9,5.9,0,0,0-3.595.964,3.052,3.052,0,0,0-1.24,2.6,3.425,3.425,0,0,0,2.131,3.146,19.756,19.756,0,0,0,2.195.928c.819.293,1.646.622,2.456.979a14.573,14.573,0,0,1,2.287,1.25,5.334,5.334,0,0,1,1.731,2,6.944,6.944,0,0,1,.66,3.206,5.243,5.243,0,0,1-1.1,3.351,5.447,5.447,0,0,1-2.659,1.87A11.939,11.939,0,0,1-177.593,305.889Zm-2.236-20.8a4.609,4.609,0,0,0-2.071,1.054,4.32,4.32,0,0,0-1.381,3.349,4.506,4.506,0,0,0,2.154,4.026,14.938,14.938,0,0,0,2.206,1.223q1.225.551,2.432,1.058a19.208,19.208,0,0,1,2.261,1.122,4.432,4.432,0,0,1,2.406,3.971,3.962,3.962,0,0,1-1.842,3.531,6.814,6.814,0,0,1-1.408.7,8.673,8.673,0,0,0,.853-.22,4.924,4.924,0,0,0,2.4-1.691,4.728,4.728,0,0,0,.99-3.02,6.441,6.441,0,0,0-.6-2.96,4.774,4.774,0,0,0-1.56-1.8,13.9,13.9,0,0,0-2.2-1.2c-.8-.351-1.616-.675-2.424-.966a20.185,20.185,0,0,1-2.257-.955,3.963,3.963,0,0,1-2.421-3.62,3.6,3.6,0,0,1,1.451-3.024A4.493,4.493,0,0,1-179.828,285.09Z" transform="translate(184.235 -284.318)" fill="#03065e"/>
      </g>
      <g id="Grupo_4" data-name="Grupo 4" transform="translate(52.63 5.79)">
        <path id="Trazado_7" data-name="Trazado 7" d="M-169.393,305.414h-2.483V284.769h-5.176v-.3h12.866v.3h-5.206Z" transform="translate(177.32 -284.205)" fill="#03065e"/>
        <path id="Trazado_8" data-name="Trazado 8" d="M-168.984,305.824H-172V285.178h-5.176v-.831h13.4v.831h-5.206Zm-2.483-.534h1.949V284.881l-1.949.03Z" transform="translate(177.178 -284.347)" fill="#03065e"/>
      </g>
      <g id="Grupo_5" data-name="Grupo 5" transform="translate(66.124)">
        <path id="Trazado_9" data-name="Trazado 9" d="M-170.739,298.523q0-5.443,2.648-8.273a8.908,8.908,0,0,1,6.807-2.825,8.99,8.99,0,0,1,6.627,2.451q2.468,2.456,2.468,7.839t-2.633,8.141a9.28,9.28,0,0,1-7.031,2.753,8.943,8.943,0,0,1-6.223-2.184,7.476,7.476,0,0,1-1.96-3.157A14.472,14.472,0,0,1-170.739,298.523Zm9.365-10.8a5.861,5.861,0,0,0-4.952,2.691q-1.93,2.693-1.93,7.9t1.825,7.6a5.806,5.806,0,0,0,4.862,2.4,5.864,5.864,0,0,0,4.967-2.71q1.93-2.706,1.93-7.869t-1.84-7.585A5.815,5.815,0,0,0-161.374,287.724Zm1.556-5.9,2.154-.058-3.142,4.277h-.389Z" transform="translate(171.006 -281.488)" fill="#03065e"/>
        <path id="Trazado_10" data-name="Trazado 10" d="M-161.71,309.026a9.243,9.243,0,0,1-6.4-2.255,7.773,7.773,0,0,1-2.032-3.266,14.773,14.773,0,0,1-.718-4.832c0-3.682.915-6.527,2.721-8.455a9.2,9.2,0,0,1,7-2.911,9.283,9.283,0,0,1,6.815,2.53c1.691,1.68,2.548,4.381,2.548,8.027s-.91,6.446-2.708,8.324A9.571,9.571,0,0,1-161.71,309.026Zm-2.212-20.81a8.414,8.414,0,0,0-3.832,2.368c-1.708,1.825-2.575,4.546-2.575,8.089a14.29,14.29,0,0,0,.688,4.657,7.248,7.248,0,0,0,1.887,3.046,8.083,8.083,0,0,0,3.915,1.917,6.17,6.17,0,0,1-2.663-2.067c-1.246-1.635-1.879-4.247-1.879-7.76s.667-6.221,1.981-8.055A6.8,6.8,0,0,1-163.922,288.216Zm2.691-.075a5.56,5.56,0,0,0-4.734,2.58c-1.248,1.742-1.881,4.347-1.881,7.745s.6,5.9,1.77,7.437a5.512,5.512,0,0,0,4.651,2.289,5.565,5.565,0,0,0,4.749-2.6c1.248-1.75,1.881-4.347,1.881-7.715s-.6-5.862-1.787-7.422A5.571,5.571,0,0,0-161.232,288.141Zm2.5-.056a6.255,6.255,0,0,1,2.571,2.05c1.255,1.654,1.894,4.259,1.894,7.745s-.667,6.183-1.979,8.025a6.819,6.819,0,0,1-2.466,2.2,8.335,8.335,0,0,0,3.836-2.283c1.7-1.774,2.558-4.452,2.558-7.955s-.8-6.072-2.389-7.649A7.98,7.98,0,0,0-158.727,288.086Zm-1.8-1.622h-.893l1.549-4.747,2.887-.079Zm1.045-4.223-1.111,3.411,2.533-3.452Z" transform="translate(170.864 -281.638)" fill="#03065e"/>
      </g>
      <g id="Grupo_6" data-name="Grupo 6" transform="translate(87.847 5.79)">
        <path id="Trazado_11" data-name="Trazado 11" d="M-160.188,305.414h-.387V284.472h1.017l12.447,19.356V284.472h.389v20.942h-2.184l-11.282-17.354Z" transform="translate(160.842 -284.205)" fill="#03065e"/>
        <path id="Trazado_12" data-name="Trazado 12" d="M-146.312,305.824h-2.6l-.079-.12-10.791-16.6v16.719h-.921V284.347h1.43l.079.122,11.955,18.594V284.347h.923Zm-2.306-.534h1.772v-.635l-12.714-19.773h-.6v2.646Z" transform="translate(160.7 -284.347)" fill="#03065e"/>
      </g>
      <g id="Grupo_7" data-name="Grupo 7" transform="translate(114.745 5.79)">
        <path id="Trazado_13" data-name="Trazado 13" d="M-147.989,284.709q3.469-.237,6.134-.237,7.389,0,7.39,4.935a4.905,4.905,0,0,1-1.077,3.187,5.709,5.709,0,0,1-3.441,1.812,6.668,6.668,0,0,1,3.59,1.376q1.314,1.106,1.316,3.858,0,5.777-7.39,5.775h-6.523Zm6.134.06a34.312,34.312,0,0,0-3.65.209v9.337h4.428q4.219-.183,4.219-4.847a4.617,4.617,0,0,0-1.257-3.486A5.185,5.185,0,0,0-141.855,284.769Zm-3.65,20.346h4.039a4.59,4.59,0,0,0,3.785-1.391,6.724,6.724,0,0,0,1.122-4.264q0-2.872-1.137-3.83a5.386,5.386,0,0,0-3.381-1.017h-4.428Z" transform="translate(148.256 -284.205)" fill="#03065e"/>
        <path id="Trazado_14" data-name="Trazado 14" d="M-141.324,305.824h-6.79V284.6l.248-.017c2.3-.16,4.375-.239,6.153-.239,5.08,0,7.658,1.75,7.658,5.2a5.188,5.188,0,0,1-1.137,3.355,5.234,5.234,0,0,1-2.428,1.59,6.216,6.216,0,0,1,2.541,1.225c.938.789,1.413,2.154,1.413,4.063C-133.667,303.791-136.244,305.824-141.324,305.824Zm-6.256-.534,1.949-.032V284.986q-.943.048-1.949.115Zm8.809-10.464a4.059,4.059,0,0,1,1.387.744c.829.7,1.233,2.017,1.233,4.033a7,7,0,0,1-1.182,4.432,3.545,3.545,0,0,1-1.4,1.037c3.045-.581,4.535-2.325,4.535-5.29,0-1.744-.41-2.973-1.222-3.655A6.374,6.374,0,0,0-138.77,294.826ZM-145.1,304.99h3.772a4.376,4.376,0,0,0,3.578-1.291,6.527,6.527,0,0,0,1.062-4.1c0-1.823-.35-3.041-1.043-3.625a5.152,5.152,0,0,0-3.216-.955H-145.1Zm5.9-19.936a4.134,4.134,0,0,1,1.406.878,4.893,4.893,0,0,1,1.338,3.678c0,2.385-.8,3.945-2.391,4.663a5.436,5.436,0,0,0,3.234-1.705,4.668,4.668,0,0,0,1.017-3.02C-134.59,287.018-136.1,285.535-139.193,285.054Zm-5.9,9.136h4.161c2.654-.115,3.952-1.614,3.952-4.58a4.381,4.381,0,0,0-1.175-3.293,4.961,4.961,0,0,0-3.554-1.139,33.275,33.275,0,0,0-3.383.184Z" transform="translate(148.114 -284.347)" fill="#03065e"/>
      </g>
      <g id="Grupo_8" data-name="Grupo 8" transform="translate(131.828 5.79)">
        <path id="Trazado_15" data-name="Trazado 15" d="M-128.088,284.472v.3h-9.423v8.978h8.735v.3h-8.735v11.068h10.081v.3H-140V284.472Z" transform="translate(140.263 -284.205)" fill="#03065e"/>
        <path id="Trazado_16" data-name="Trazado 16" d="M-127.02,305.824h-13.1V284.347h12.443v.831H-137.1v8.444h8.735v.833H-137.1V304.99h10.081Zm-12.567-.534,1.951-.032V284.881h-1.951Z" transform="translate(140.121 -284.347)" fill="#03065e"/>
      </g>
      <g id="Grupo_9" data-name="Grupo 9" transform="translate(147.419 5.79)">
        <path id="Trazado_17" data-name="Trazado 17" d="M-132.314,305.414h-.387V284.472h1.017l12.447,19.356V284.472h.389v20.942h-2.184l-11.282-17.354Z" transform="translate(132.968 -284.205)" fill="#03065e"/>
        <path id="Trazado_18" data-name="Trazado 18" d="M-118.439,305.824h-2.6l-.079-.12L-131.9,289.1v16.719h-.921V284.347h1.43l.079.122,11.955,18.594V284.347h.923Zm-2.306-.534h1.772v-.635l-12.714-19.773h-.6v2.646Z" transform="translate(132.826 -284.347)" fill="#03065e"/>
      </g>
      <g id="Grupo_10" data-name="Grupo 10" transform="translate(164.743 5.76)">
        <path id="Trazado_19" data-name="Trazado 19" d="M-114.153,305.552q-5.6,0-8.288-3.174a8.705,8.705,0,0,1-1.556-3.02,15.258,15.258,0,0,1-.6-4.578,12.59,12.59,0,0,1,.881-4.834,7.8,7.8,0,0,1,2.411-3.306,11.716,11.716,0,0,1,7.151-2.182,17.77,17.77,0,0,1,2.631.192,12.471,12.471,0,0,1,1.915.4l.628.209-.09.3a15.445,15.445,0,0,0-5.084-.808,7.3,7.3,0,0,0-5.3,2.062,8.567,8.567,0,0,0-2.272,4.49,18.341,18.341,0,0,0-.391,4.1,13.948,13.948,0,0,0,.69,4.471,8.746,8.746,0,0,0,1.571,3.039,6.538,6.538,0,0,0,2.139,1.571,7.177,7.177,0,0,0,2,.673,15.742,15.742,0,0,0,1.782.09,21.564,21.564,0,0,0,2.766-.239v-6.166h-3.618v-.3h7.39v.3h-1.287v5.9A16.434,16.434,0,0,1-114.153,305.552Z" transform="translate(124.862 -284.191)" fill="#03065e"/>
        <path id="Trazado_20" data-name="Trazado 20" d="M-114.011,305.961c-3.8,0-6.653-1.1-8.493-3.268a9.066,9.066,0,0,1-1.607-3.114,15.609,15.609,0,0,1-.609-4.657,12.885,12.885,0,0,1,.9-4.935,8.064,8.064,0,0,1,2.494-3.417,12.036,12.036,0,0,1,7.313-2.238,18.041,18.041,0,0,1,2.671.2,12.478,12.478,0,0,1,1.96.415l.874.291-.244.814-.265-.09a15.263,15.263,0,0,0-5-.793,7.078,7.078,0,0,0-5.112,1.988,8.333,8.333,0,0,0-2.2,4.353,18.128,18.128,0,0,0-.385,4.044,13.783,13.783,0,0,0,.675,4.386,8.577,8.577,0,0,0,1.517,2.945,6.286,6.286,0,0,0,2.052,1.507,6.935,6.935,0,0,0,1.923.65,14.744,14.744,0,0,0,1.75.09,20.039,20.039,0,0,0,2.5-.207v-5.664h-3.618v-.834h7.925v.834h-1.287v5.817l-.177.062A16.746,16.746,0,0,1-114.011,305.961Zm3.257-7v6.215a12.845,12.845,0,0,0,1.951-.477v-5.738Zm-6.409-13.734A10.657,10.657,0,0,0-121,287a7.55,7.55,0,0,0-2.321,3.193,12.39,12.39,0,0,0-.861,4.732,15.045,15.045,0,0,0,.586,4.5,8.523,8.523,0,0,0,1.5,2.93,8.628,8.628,0,0,0,5.012,2.787c-.188-.077-.389-.165-.6-.263a6.8,6.8,0,0,1-2.227-1.635,9.13,9.13,0,0,1-1.624-3.131,14.293,14.293,0,0,1-.7-4.556,18.77,18.77,0,0,1,.4-4.161,8.817,8.817,0,0,1,2.351-4.621A7.379,7.379,0,0,1-117.163,285.224Z" transform="translate(124.72 -284.333)" fill="#03065e"/>
      </g>
      <g id="Grupo_11" data-name="Grupo 11" transform="translate(184.189 5.67)">
        <path id="Trazado_21" data-name="Trazado 21" d="M-115.5,295.514q0-5.443,2.648-8.273a8.908,8.908,0,0,1,6.807-2.825,8.986,8.986,0,0,1,6.627,2.451q2.468,2.456,2.468,7.839t-2.633,8.141a9.281,9.281,0,0,1-7.031,2.753,8.946,8.946,0,0,1-6.223-2.184,7.477,7.477,0,0,1-1.96-3.157A14.471,14.471,0,0,1-115.5,295.514Zm9.365-10.8a5.861,5.861,0,0,0-4.952,2.691q-1.93,2.693-1.93,7.9t1.825,7.6a5.809,5.809,0,0,0,4.862,2.4,5.864,5.864,0,0,0,4.967-2.71q1.93-2.706,1.93-7.869t-1.84-7.585A5.813,5.813,0,0,0-106.131,284.715Z" transform="translate(115.763 -284.149)" fill="#03065e"/>
        <path id="Trazado_22" data-name="Trazado 22" d="M-106.467,306.009a9.234,9.234,0,0,1-6.4-2.255,7.755,7.755,0,0,1-2.035-3.266,14.774,14.774,0,0,1-.718-4.832c0-3.682.917-6.527,2.721-8.455a9.2,9.2,0,0,1,7-2.911,9.28,9.28,0,0,1,6.815,2.53c1.691,1.68,2.548,4.381,2.548,8.027s-.91,6.446-2.708,8.324A9.571,9.571,0,0,1-106.467,306.009Zm-2.212-20.81a8.414,8.414,0,0,0-3.832,2.368c-1.708,1.825-2.575,4.546-2.575,8.089a14.29,14.29,0,0,0,.688,4.657,7.248,7.248,0,0,0,1.887,3.046,8.081,8.081,0,0,0,3.917,1.917,6.176,6.176,0,0,1-2.665-2.067c-1.246-1.635-1.879-4.247-1.879-7.76s.667-6.221,1.981-8.055A6.8,6.8,0,0,1-108.679,285.2Zm2.691-.075a5.56,5.56,0,0,0-4.734,2.58c-1.248,1.742-1.881,4.347-1.881,7.745s.6,5.9,1.772,7.437a5.505,5.505,0,0,0,4.648,2.289,5.571,5.571,0,0,0,4.751-2.6c1.246-1.75,1.879-4.347,1.879-7.715s-.6-5.862-1.785-7.422A5.575,5.575,0,0,0-105.989,285.125Zm2.5-.056a6.255,6.255,0,0,1,2.571,2.05c1.257,1.654,1.894,4.259,1.894,7.745s-.667,6.183-1.979,8.025a6.839,6.839,0,0,1-2.466,2.2,8.324,8.324,0,0,0,3.836-2.283c1.7-1.774,2.558-4.452,2.558-7.955s-.8-6.072-2.389-7.649A7.971,7.971,0,0,0-103.484,285.069Z" transform="translate(115.621 -284.291)" fill="#03065e"/>
      </g>
      <g id="Grupo_12" data-name="Grupo 12" transform="translate(205.462 5.76)">
        <path id="Trazado_23" data-name="Trazado 23" d="M-95.1,305.552q-5.594,0-8.288-3.174a8.705,8.705,0,0,1-1.556-3.02,15.258,15.258,0,0,1-.6-4.578,12.55,12.55,0,0,1,.883-4.834,7.774,7.774,0,0,1,2.409-3.306,11.716,11.716,0,0,1,7.151-2.182,13.98,13.98,0,0,1,2.334.192,10.415,10.415,0,0,1,1.705.4l.539.209-.09.3a12.063,12.063,0,0,0-4.488-.808,7.291,7.291,0,0,0-5.3,2.062,8.553,8.553,0,0,0-2.274,4.49,18.354,18.354,0,0,0-.389,4.1,13.949,13.949,0,0,0,.688,4.471,8.746,8.746,0,0,0,1.571,3.039,6.561,6.561,0,0,0,2.139,1.571,7.165,7.165,0,0,0,2,.673,15.97,15.97,0,0,0,1.81.09,15.682,15.682,0,0,0,2.409-.212c.9-.139,1.575-.269,2.035-.387l.688-.209.09.3A16.434,16.434,0,0,1-95.1,305.552Z" transform="translate(105.809 -284.191)" fill="#03065e"/>
        <path id="Trazado_24" data-name="Trazado 24" d="M-94.958,305.961c-3.8,0-6.653-1.1-8.491-3.268a8.992,8.992,0,0,1-1.607-3.114,15.535,15.535,0,0,1-.611-4.657,12.885,12.885,0,0,1,.9-4.935,8.082,8.082,0,0,1,2.494-3.417,12.041,12.041,0,0,1,7.313-2.238,14.3,14.3,0,0,1,2.379.2,10.654,10.654,0,0,1,1.752.417l.774.3-.246.814-.269-.107a11.847,11.847,0,0,0-4.39-.789,7.073,7.073,0,0,0-5.11,1.988,8.319,8.319,0,0,0-2.2,4.353,18.268,18.268,0,0,0-.383,4.044,13.724,13.724,0,0,0,.675,4.386,8.542,8.542,0,0,0,1.515,2.945,6.287,6.287,0,0,0,2.052,1.507,6.957,6.957,0,0,0,1.923.65,15.32,15.32,0,0,0,4.148-.118c.874-.137,1.549-.265,2.009-.383l.932-.286.242.8-.239.083A16.746,16.746,0,0,1-94.958,305.961Zm-3.15-20.737A10.667,10.667,0,0,0-101.95,287a7.55,7.55,0,0,0-2.321,3.193,12.39,12.39,0,0,0-.861,4.732,15.046,15.046,0,0,0,.586,4.5,8.524,8.524,0,0,0,1.507,2.93,8.621,8.621,0,0,0,5.012,2.787q-.285-.115-.6-.263a6.824,6.824,0,0,1-2.227-1.635,9.13,9.13,0,0,1-1.624-3.131,14.293,14.293,0,0,1-.7-4.556,18.783,18.783,0,0,1,.4-4.161,8.817,8.817,0,0,1,2.351-4.621A7.387,7.387,0,0,1-98.108,285.224Z" transform="translate(105.667 -284.333)" fill="#03065e"/>
      </g>
      <g id="Grupo_13" data-name="Grupo 13" transform="translate(223.953 5.79)">
        <path id="Trazado_25" data-name="Trazado 25" d="M-94.409,305.414H-96.89V284.472h2.481V294.1h9.726v-9.632H-82.2v20.942h-2.483V294.406h-9.726Z" transform="translate(97.157 -284.205)" fill="#03065e"/>
        <path id="Trazado_26" data-name="Trazado 26" d="M-81.79,305.824h-3.018V294.815H-94v11.009h-3.016V284.347H-94v9.632h9.192v-9.632h3.018Zm-2.483-.534h1.949V284.881h-1.949Zm-12.208,0h1.947V284.881h-1.947Z" transform="translate(97.015 -284.347)" fill="#03065e"/>
      </g>
      <g id="Grupo_14" data-name="Grupo 14" transform="translate(242.262 5.79)">
        <path id="Trazado_27" data-name="Trazado 27" d="M-76.415,284.472v.3H-85.84v8.978H-77.1v.3H-85.84v11.068h10.083v.3H-88.323V284.472Z" transform="translate(88.59 -284.205)" fill="#03065e"/>
        <path id="Trazado_28" data-name="Trazado 28" d="M-75.347,305.824h-13.1V284.347h12.443v.831H-85.43v8.444h8.737v.833H-85.43V304.99h10.083Zm-12.567-.534,1.949-.032V284.881h-1.949Z" transform="translate(88.448 -284.347)" fill="#03065e"/>
      </g>
      <g id="Grupo_15" data-name="Grupo 15" transform="translate(256.667 5.542)">
        <path id="Trazado_29" data-name="Trazado 29" d="M-81.16,305.495h-.359l8.946-20.942.329-.152,7.542,21.094h-2.543l-2.336-6.583h-8.737Zm7.66-17.713-4.7,10.831h8.525Z" transform="translate(81.923 -284.038)" fill="#03065e"/>
        <path id="Trazado_30" data-name="Trazado 30" d="M-64.108,305.956H-67.22l-2.334-6.583h-8.371l-2.845,6.583h-.938l9.145-21.41.688-.314Zm-2.733-.534h1.975l-7.3-20.432-1.032,2.417,4.127,11.667h-.015Zm-10.733-6.882h7.743l-3.477-9.833Z" transform="translate(81.708 -284.231)" fill="#03065e"/>
      </g>
    </g>
    <g id="Grupo_17" data-name="Grupo 17" transform="translate(-201.026 319.288)">
      <path id="Trazado_31" data-name="Trazado 31" d="M-198.769,306.879a5.032,5.032,0,0,1-1.96-1.906,5.325,5.325,0,0,1-.712-2.731,5.325,5.325,0,0,1,.712-2.731,5.021,5.021,0,0,1,1.966-1.906,5.752,5.752,0,0,1,2.812-.688,5.843,5.843,0,0,1,2.154.389,4.454,4.454,0,0,1,1.676,1.137l-.7.7a4.173,4.173,0,0,0-3.1-1.242,4.565,4.565,0,0,0-2.259.568,4.156,4.156,0,0,0-1.592,1.556,4.3,4.3,0,0,0-.577,2.214,4.3,4.3,0,0,0,.577,2.214,4.155,4.155,0,0,0,1.592,1.556,4.564,4.564,0,0,0,2.259.569,4.115,4.115,0,0,0,3.1-1.257l.7.7a4.509,4.509,0,0,1-1.682,1.143,5.785,5.785,0,0,1-2.163.4A5.7,5.7,0,0,1-198.769,306.879Z" transform="translate(201.44 -296.915)" fill="#03065e"/>
      <path id="Trazado_32" data-name="Trazado 32" d="M-190.816,306.87a5.06,5.06,0,0,1-1.975-1.906,5.277,5.277,0,0,1-.712-2.723,5.277,5.277,0,0,1,.712-2.723,5.08,5.08,0,0,1,1.975-1.909,5.746,5.746,0,0,1,2.819-.695,5.71,5.71,0,0,1,2.806.688,5.108,5.108,0,0,1,1.966,1.906,5.289,5.289,0,0,1,.718,2.731,5.289,5.289,0,0,1-.718,2.731,5.107,5.107,0,0,1-1.966,1.906,5.71,5.71,0,0,1-2.806.688A5.725,5.725,0,0,1-190.816,306.87Zm5.065-.853a4.037,4.037,0,0,0,1.569-1.556,4.376,4.376,0,0,0,.568-2.221,4.375,4.375,0,0,0-.568-2.22,4.035,4.035,0,0,0-1.569-1.556A4.5,4.5,0,0,0-188,297.9a4.532,4.532,0,0,0-2.25.562,4.064,4.064,0,0,0-1.586,1.556,4.339,4.339,0,0,0-.577,2.22,4.339,4.339,0,0,0,.577,2.221,4.066,4.066,0,0,0,1.586,1.556,4.533,4.533,0,0,0,2.25.562A4.506,4.506,0,0,0-185.75,306.017Z" transform="translate(210.467 -296.915)" fill="#03065e"/>
      <path id="Trazado_33" data-name="Trazado 33" d="M-177.034,307.429l-2.394-3.366a7.606,7.606,0,0,1-.838.045h-2.813v3.321h-1.107V296.957h3.92a4.729,4.729,0,0,1,3.142.957,3.256,3.256,0,0,1,1.137,2.633,3.392,3.392,0,0,1-.622,2.071,3.414,3.414,0,0,1-1.772,1.22l2.558,3.59Zm-.883-4.952a2.377,2.377,0,0,0,.823-1.93,2.384,2.384,0,0,0-.823-1.951,3.636,3.636,0,0,0-2.379-.682h-2.783v5.251h2.783A3.624,3.624,0,0,0-177.917,302.477Z" transform="translate(221.062 -296.867)" fill="#03065e"/>
      <path id="Trazado_34" data-name="Trazado 34" d="M-168.963,307.429l-2.394-3.366a7.606,7.606,0,0,1-.838.045h-2.813v3.321h-1.107V296.957h3.92a4.729,4.729,0,0,1,3.142.957,3.263,3.263,0,0,1,1.137,2.633,3.392,3.392,0,0,1-.622,2.071,3.423,3.423,0,0,1-1.772,1.22l2.558,3.59Zm-.883-4.952a2.377,2.377,0,0,0,.823-1.93,2.384,2.384,0,0,0-.823-1.951,3.64,3.64,0,0,0-2.379-.682h-2.783v5.251h2.783A3.628,3.628,0,0,0-169.846,302.477Z" transform="translate(230.24 -296.867)" fill="#03065e"/>
      <path id="Trazado_35" data-name="Trazado 35" d="M-160.638,306.472v.957h-7.405V296.957h7.181v.957h-6.074v3.725h5.416v.942h-5.416v3.89Z" transform="translate(239.418 -296.867)" fill="#03065e"/>
      <path id="Trazado_36" data-name="Trazado 36" d="M-160.35,296.957h4.264a6.224,6.224,0,0,1,2.932.667,4.848,4.848,0,0,1,1.975,1.853,5.244,5.244,0,0,1,.7,2.716,5.231,5.231,0,0,1-.7,2.714,4.839,4.839,0,0,1-1.975,1.855,6.225,6.225,0,0,1-2.932.667h-4.264Zm4.2,9.515a5.064,5.064,0,0,0,2.409-.547,3.957,3.957,0,0,0,1.6-1.511,4.292,4.292,0,0,0,.568-2.221,4.291,4.291,0,0,0-.568-2.221,3.956,3.956,0,0,0-1.6-1.511,5.063,5.063,0,0,0-2.409-.547h-3.1v8.557Z" transform="translate(248.167 -296.867)" fill="#03065e"/>
      <path id="Trazado_37" data-name="Trazado 37" d="M-149.306,306.87a5.08,5.08,0,0,1-1.977-1.906,5.3,5.3,0,0,1-.71-2.723,5.3,5.3,0,0,1,.71-2.723,5.1,5.1,0,0,1,1.977-1.909,5.746,5.746,0,0,1,2.819-.695,5.7,5.7,0,0,1,2.8.688,5.1,5.1,0,0,1,1.968,1.906,5.288,5.288,0,0,1,.718,2.731,5.288,5.288,0,0,1-.718,2.731,5.1,5.1,0,0,1-1.968,1.906,5.7,5.7,0,0,1-2.8.688A5.725,5.725,0,0,1-149.306,306.87Zm5.063-.853a4.043,4.043,0,0,0,1.571-1.556,4.4,4.4,0,0,0,.568-2.221,4.4,4.4,0,0,0-.568-2.22,4.041,4.041,0,0,0-1.571-1.556,4.5,4.5,0,0,0-2.244-.562,4.531,4.531,0,0,0-2.25.562,4.05,4.05,0,0,0-1.586,1.556,4.339,4.339,0,0,0-.577,2.22,4.339,4.339,0,0,0,.577,2.221,4.052,4.052,0,0,0,1.586,1.556,4.533,4.533,0,0,0,2.25.562A4.5,4.5,0,0,0-144.243,306.017Z" transform="translate(257.671 -296.915)" fill="#03065e"/>
      <path id="Trazado_38" data-name="Trazado 38" d="M-135.524,307.429l-2.394-3.366a7.605,7.605,0,0,1-.838.045h-2.813v3.321h-1.107V296.957h3.92a4.729,4.729,0,0,1,3.142.957,3.263,3.263,0,0,1,1.137,2.633,3.392,3.392,0,0,1-.622,2.071,3.423,3.423,0,0,1-1.772,1.22l2.558,3.59Zm-.883-4.952a2.377,2.377,0,0,0,.823-1.93,2.384,2.384,0,0,0-.823-1.951,3.64,3.64,0,0,0-2.379-.682h-2.783v5.251h2.783A3.628,3.628,0,0,0-136.407,302.477Z" transform="translate(268.267 -296.867)" fill="#03065e"/>
      <path id="Trazado_39" data-name="Trazado 39" d="M-129.76,296.957h4.264a6.224,6.224,0,0,1,2.932.667,4.862,4.862,0,0,1,1.975,1.853,5.244,5.244,0,0,1,.7,2.716,5.231,5.231,0,0,1-.7,2.714,4.853,4.853,0,0,1-1.975,1.855,6.225,6.225,0,0,1-2.932.667h-4.264Zm4.2,9.515a5.064,5.064,0,0,0,2.409-.547,3.957,3.957,0,0,0,1.6-1.511,4.292,4.292,0,0,0,.568-2.221,4.291,4.291,0,0,0-.568-2.221,3.956,3.956,0,0,0-1.6-1.511,5.062,5.062,0,0,0-2.409-.547h-3.1v8.557Z" transform="translate(282.953 -296.867)" fill="#03065e"/>
      <path id="Trazado_40" data-name="Trazado 40" d="M-113.563,306.472v.957h-7.405V296.957h7.181v.957h-6.074v3.725h5.416v.942h-5.416v3.89Z" transform="translate(292.951 -296.867)" fill="#03065e"/>
      <path id="Trazado_41" data-name="Trazado 41" d="M-100.24,302.92a2.561,2.561,0,0,1,.562,1.712,2.417,2.417,0,0,1-1,2.073,4.97,4.97,0,0,1-2.941.724h-4.817V296.957h4.52a4.532,4.532,0,0,1,2.714.7,2.313,2.313,0,0,1,.964,1.99,2.49,2.49,0,0,1-.425,1.473,2.549,2.549,0,0,1-1.175.906A2.77,2.77,0,0,1-100.24,302.92Zm-7.085-5.05v3.8h3.336a3.373,3.373,0,0,0,1.96-.485,1.624,1.624,0,0,0,.69-1.415,1.624,1.624,0,0,0-.69-1.415,3.373,3.373,0,0,0-1.96-.485Zm5.822,8.168a1.67,1.67,0,0,0,.718-1.5q0-1.959-2.845-1.96h-3.7v3.935h3.7A3.867,3.867,0,0,0-101.5,306.038Z" transform="translate(307.207 -296.867)" fill="#03065e"/>
      <path id="Trazado_42" data-name="Trazado 42" d="M-97.892,306.87a5.089,5.089,0,0,1-1.975-1.906,5.277,5.277,0,0,1-.712-2.723,5.277,5.277,0,0,1,.712-2.723,5.109,5.109,0,0,1,1.975-1.909,5.749,5.749,0,0,1,2.821-.695,5.708,5.708,0,0,1,2.8.688A5.078,5.078,0,0,1-90.3,299.51a5.268,5.268,0,0,1,.718,2.731,5.268,5.268,0,0,1-.718,2.731,5.078,5.078,0,0,1-1.966,1.906,5.708,5.708,0,0,1-2.8.688A5.727,5.727,0,0,1-97.892,306.87Zm5.065-.853a4.057,4.057,0,0,0,1.571-1.556,4.4,4.4,0,0,0,.568-2.221,4.4,4.4,0,0,0-.568-2.22,4.055,4.055,0,0,0-1.571-1.556,4.5,4.5,0,0,0-2.244-.562,4.534,4.534,0,0,0-2.253.562,4.079,4.079,0,0,0-1.586,1.556,4.337,4.337,0,0,0-.575,2.22,4.338,4.338,0,0,0,.575,2.221,4.081,4.081,0,0,0,1.586,1.556,4.536,4.536,0,0,0,2.253.562A4.5,4.5,0,0,0-92.826,306.017Z" transform="translate(316.138 -296.915)" fill="#03065e"/>
      <path id="Trazado_43" data-name="Trazado 43" d="M-91.261,296.957h1.107v9.515h5.864v.957h-6.971Z" transform="translate(326.734 -296.867)" fill="#03065e"/>
      <path id="Trazado_44" data-name="Trazado 44" d="M-83,307.193a4.116,4.116,0,0,1-1.652-.987l.434-.853a4.1,4.1,0,0,0,1.509.919,5.52,5.52,0,0,0,1.945.353,3.563,3.563,0,0,0,2.112-.517,1.584,1.584,0,0,0,.7-1.338,1.34,1.34,0,0,0-.38-1,2.572,2.572,0,0,0-.934-.575,15.243,15.243,0,0,0-1.543-.442,15.749,15.749,0,0,1-1.883-.577,3.08,3.08,0,0,1-1.205-.844,2.237,2.237,0,0,1-.5-1.541,2.616,2.616,0,0,1,.419-1.445,2.852,2.852,0,0,1,1.287-1.039,5.267,5.267,0,0,1,2.152-.389,6.416,6.416,0,0,1,1.759.246,5.088,5.088,0,0,1,1.49.682l-.374.883a5.073,5.073,0,0,0-1.408-.65,5.211,5.211,0,0,0-1.466-.218,3.392,3.392,0,0,0-2.071.53,1.648,1.648,0,0,0-.695,1.37,1.359,1.359,0,0,0,.38,1.009,2.494,2.494,0,0,0,.957.583c.385.135.9.284,1.549.442a15.809,15.809,0,0,1,1.861.56,3.069,3.069,0,0,1,1.205.84,2.22,2.22,0,0,1,.494,1.517,2.568,2.568,0,0,1-.427,1.443,2.853,2.853,0,0,1-1.308,1.032,5.479,5.479,0,0,1-2.171.383A6.715,6.715,0,0,1-83,307.193Z" transform="translate(334.249 -296.915)" fill="#03065e"/>
      <path id="Trazado_45" data-name="Trazado 45" d="M-69.409,304.632h-5.835l-1.257,2.8h-1.152l4.785-10.472h1.094l4.785,10.472h-1.167Zm-.4-.9-2.515-5.625-2.511,5.625Z" transform="translate(342.21 -296.867)" fill="#03065e"/>
    </g>
  </g>
</svg>
